HIERARCHY
ROOT hips
{
	OFFSET -0.003675 0.299928 -0.021708
	CHANNELS 6 Xposition Yposition Zposition Xrotation Yrotation Zrotation
	JOINT LowerBack
	{
		OFFSET 0.000919 0.177588 0.009275
		CHANNELS 3 Xrotation Yrotation Zrotation
		JOINT spine
		{
			OFFSET 0.000919 0.177588 0.009275
			CHANNELS 3 Xrotation Yrotation Zrotation
			JOINT chest
			{
				OFFSET 0.000456 0.100015 0.004638
				CHANNELS 3 Xrotation Yrotation Zrotation
				JOINT neck
				{
					OFFSET 0.000456 0.100015 0.004638
					CHANNELS 3 Xrotation Yrotation Zrotation
					JOINT head
					{
						OFFSET 0.000924 0.155147 0.009274
						CHANNELS 6 Xposition Yposition Zposition Xrotation Yrotation Zrotation
						End Site
						{
							OFFSET 0.000000 0.153400 0.000000
						}
					}
				}
				JOINT shoulder.L
				{
					OFFSET 0.019937 0.078966 0.057518
					CHANNELS 6 Xposition Yposition Zposition Yrotation Xrotation Zrotation
					JOINT upper_arm.L
					{
						OFFSET 0.177024 -0.020465 -0.095062
						CHANNELS 6 Xposition Yposition Zposition Xrotation Yrotation Zrotation
						JOINT forearm.L
						{
							OFFSET 0.247100 -0.135500 -0.061800
							CHANNELS 3 Xrotation Yrotation Zrotation
							JOINT hand.L
							{
								OFFSET 0.217000 -0.143000 0.039300
								CHANNELS 3 Xrotation Yrotation Zrotation
								JOINT palm.01.L
								{
									OFFSET 0.021770 -0.038291 0.012954
									CHANNELS 6 Xposition Yposition Zposition Yrotation Xrotation Zrotation
									JOINT f_index.01.L
									{
										OFFSET 0.053215 -0.044137 0.008236
										CHANNELS 3 Xrotation Yrotation Zrotation
										JOINT f_index.02.L
										{
											OFFSET 0.036108 -0.024723 -0.010656
											CHANNELS 3 Xrotation Yrotation Zrotation
											JOINT f_index.03.L
											{
												OFFSET 0.021342 -0.014948 -0.010846
												CHANNELS 3 Xrotation Yrotation Zrotation
												End Site
												{
													OFFSET 0.015600 -0.009860 -0.013421
												}
											}
										}
									}
									JOINT thumb.01.L
									{
										OFFSET -0.009090 -0.002348 -0.024223
										CHANNELS 6 Xposition Yposition Zposition Xrotation Yrotation Zrotation
										JOINT thumb.02.L
										{
											OFFSET 0.019713 -0.035076 -0.011120
											CHANNELS 3 Xrotation Yrotation Zrotation
											JOINT thumb.03.L
											{
												OFFSET 0.024877 -0.021748 -0.005176
												CHANNELS 3 Xrotation Yrotation Zrotation
												End Site
												{
													OFFSET 0.016125 -0.013029 -0.001569
												}
											}
										}
									}
								}
								JOINT palm.02.L
								{
									OFFSET 0.032823 -0.025104 0.012281
									CHANNELS 6 Xposition Yposition Zposition Yrotation Xrotation Zrotation
									JOINT f_middle.01.L
									{
										OFFSET 0.055723 -0.038469 0.008037
										CHANNELS 3 Xrotation Yrotation Zrotation
										JOINT f_middle.02.L
										{
											OFFSET 0.038167 -0.027473 -0.015582
											CHANNELS 3 Xrotation Yrotation Zrotation
											JOINT f_middle.03.L
											{
												OFFSET 0.021707 -0.016587 -0.017037
												CHANNELS 3 Xrotation Yrotation Zrotation
												End Site
												{
													OFFSET 0.014112 -0.010584 -0.014294
												}
											}
										}
									}
								}
								JOINT palm.03.L
								{
									OFFSET 0.039230 -0.011402 0.008390
									CHANNELS 6 Xposition Yposition Zposition Yrotation Xrotation Zrotation
									JOINT f_ring.01.L
									{
										OFFSET 0.061796 -0.031470 0.007910
										CHANNELS 3 Xrotation Yrotation Zrotation
										JOINT f_ring.02.L
										{
											OFFSET 0.033092 -0.023401 -0.019127
											CHANNELS 3 Xrotation Yrotation Zrotation
											JOINT f_ring.03.L
											{
												OFFSET 0.021392 -0.015362 -0.017824
												CHANNELS 3 Xrotation Yrotation Zrotation
												End Site
												{
													OFFSET 0.008670 -0.007297 -0.014686
												}
											}
										}
									}
								}
								JOINT palm.04.L
								{
									OFFSET 0.043417 0.002450 0.002889
									CHANNELS 6 Xposition Yposition Zposition Yrotation Xrotation Zrotation
									JOINT f_pinky.01.L
									{
										OFFSET 0.069986 -0.026156 0.003627
										CHANNELS 3 Xrotation Yrotation Zrotation
										JOINT f_pinky.02.L
										{
											OFFSET 0.018520 -0.012813 -0.016429
											CHANNELS 3 Xrotation Yrotation Zrotation
											JOINT f_pinky.03.L
											{
												OFFSET 0.013822 -0.009796 -0.014947
												CHANNELS 3 Xrotation Yrotation Zrotation
												End Site
												{
													OFFSET 0.007238 -0.006103 -0.011657
												}
											}
										}
									}
								}
							}
						}
					}
				}
				JOINT shoulder.R
				{
					OFFSET -0.016662 0.078957 0.057696
					CHANNELS 6 Xposition Yposition Zposition Yrotation Xrotation Zrotation
					JOINT upper_arm.R
					{
						OFFSET -0.176972 -0.020537 -0.095144
						CHANNELS 6 Xposition Yposition Zposition Xrotation Yrotation Zrotation
						JOINT forearm.R
						{
							OFFSET -0.247100 -0.135500 -0.061800
							CHANNELS 3 Xrotation Yrotation Zrotation
							JOINT hand.R
							{
								OFFSET -0.217000 -0.143000 0.039300
								CHANNELS 3 Xrotation Yrotation Zrotation
								JOINT palm.01.R
								{
									OFFSET -0.021773 -0.038278 0.012988
									CHANNELS 6 Xposition Yposition Zposition Yrotation Xrotation Zrotation
									JOINT f_index.01.R
									{
										OFFSET -0.053212 -0.044139 0.008249
										CHANNELS 3 Xrotation Yrotation Zrotation
										JOINT f_index.02.R
										{
											OFFSET -0.036049 -0.024835 -0.010634
											CHANNELS 3 Xrotation Yrotation Zrotation
											JOINT f_index.03.R
											{
												OFFSET -0.021371 -0.014881 -0.010866
												CHANNELS 3 Xrotation Yrotation Zrotation
												End Site
												{
													OFFSET -0.015584 -0.009883 -0.013422
												}
											}
										}
									}
									JOINT thumb.01.R
									{
										OFFSET 0.009113 -0.002381 -0.024211
										CHANNELS 6 Xposition Yposition Zposition Xrotation Yrotation Zrotation
										JOINT thumb.02.R
										{
											OFFSET -0.019694 -0.035097 -0.011088
											CHANNELS 3 Xrotation Yrotation Zrotation
											JOINT thumb.03.R
											{
												OFFSET -0.024867 -0.021762 -0.005168
												CHANNELS 3 Xrotation Yrotation Zrotation
												End Site
												{
													OFFSET -0.016120 -0.013036 -0.001565
												}
											}
										}
									}
								}
								JOINT palm.02.R
								{
									OFFSET -0.032828 -0.025095 0.012286
									CHANNELS 6 Xposition Yposition Zposition Yrotation Xrotation Zrotation
									JOINT f_middle.01.R
									{
										OFFSET -0.055721 -0.038472 0.008040
										CHANNELS 3 Xrotation Yrotation Zrotation
										JOINT f_middle.02.R
										{
											OFFSET -0.038101 -0.027593 -0.015557
											CHANNELS 3 Xrotation Yrotation Zrotation
											JOINT f_middle.03.R
											{
												OFFSET -0.021730 -0.016530 -0.017054
												CHANNELS 3 Xrotation Yrotation Zrotation
												End Site
												{
													OFFSET -0.014096 -0.010608 -0.014293
												}
											}
										}
									}
								}
								JOINT palm.03.R
								{
									OFFSET -0.039192 -0.011488 0.008390
									CHANNELS 6 Xposition Yposition Zposition Yrotation Xrotation Zrotation
									JOINT f_ring.01.R
									{
										OFFSET -0.061839 -0.031387 0.007876
										CHANNELS 3 Xrotation Yrotation Zrotation
										JOINT f_ring.02.R
										{
											OFFSET -0.033068 -0.023437 -0.019125
											CHANNELS 3 Xrotation Yrotation Zrotation
											JOINT f_ring.03.R
											{
												OFFSET -0.021371 -0.015393 -0.017822
												CHANNELS 3 Xrotation Yrotation Zrotation
												End Site
												{
													OFFSET -0.008654 -0.007321 -0.014684
												}
											}
										}
									}
								}
								JOINT palm.04.R
								{
									OFFSET -0.043421 0.002443 0.002845
									CHANNELS 6 Xposition Yposition Zposition Yrotation Xrotation Zrotation
									JOINT f_pinky.01.R
									{
										OFFSET -0.069983 -0.026169 0.003599
										CHANNELS 3 Xrotation Yrotation Zrotation
										JOINT f_pinky.02.R
										{
											OFFSET -0.018501 -0.012842 -0.016428
											CHANNELS 3 Xrotation Yrotation Zrotation
											JOINT f_pinky.03.R
											{
												OFFSET -0.013806 -0.009821 -0.014946
												CHANNELS 3 Xrotation Yrotation Zrotation
												End Site
												{
													OFFSET -0.007226 -0.006121 -0.011655
												}
											}
										}
									}
								}
							}
						}
					}
				}
			}
		}
	}
	JOINT pelvis.L
	{
		OFFSET 0.000000 0.000000 0.000000
		CHANNELS 6 Xposition Yposition Zposition Xrotation Yrotation Zrotation
		JOINT thigh.L
		{
			OFFSET 0.101675 0.001054 -0.000000
			CHANNELS 3 Xrotation Yrotation Zrotation
			JOINT shin.L
			{
				OFFSET 0.000000 -0.534800 0.041000
				CHANNELS 3 Xrotation Yrotation Zrotation
				JOINT foot.L
				{
					OFFSET 0.000000 -0.452000 -0.044800
					CHANNELS 3 Xrotation Yrotation Zrotation
					JOINT toe.L
					{
						OFFSET -0.000000 -0.068500 0.109600
						CHANNELS 3 Xrotation Yrotation Zrotation
						End Site
						{
							OFFSET -0.000000 0.000000 0.067200
						}
					}
				}
				JOINT heel.L
				{
					OFFSET 0.000000 -0.452000 -0.044800
					CHANNELS 3 Xrotation Yrotation Zrotation
					JOINT heel.02.L
					{
						OFFSET -0.038000 -0.085200 0.016200
						CHANNELS 6 Xposition Yposition Zposition Xrotation Yrotation Zrotation
						End Site
						{
							OFFSET 0.080000 -0.000000 0.000000
						}
					}
				}
			}
		}
	}
	JOINT pelvis.R
	{
		OFFSET 0.000000 0.000000 0.000000
		CHANNELS 6 Xposition Yposition Zposition Xrotation Yrotation Zrotation
		JOINT thigh.R
		{
			OFFSET -0.094325 0.001054 0.000000
			CHANNELS 3 Xrotation Yrotation Zrotation
			JOINT shin.R
			{
				OFFSET 0.000000 -0.534800 0.041000
				CHANNELS 3 Xrotation Yrotation Zrotation
				JOINT foot.R
				{
					OFFSET 0.000000 -0.452000 -0.044800
					CHANNELS 3 Xrotation Yrotation Zrotation
					JOINT toe.R
					{
						OFFSET -0.000000 -0.068500 0.109600
						CHANNELS 3 Xrotation Yrotation Zrotation
						End Site
						{
							OFFSET -0.000000 0.000000 0.067200
						}
					}
				}
				JOINT heel.R
				{
					OFFSET 0.000000 -0.452000 -0.044800
					CHANNELS 3 Xrotation Yrotation Zrotation
					JOINT heel.02.R
					{
						OFFSET 0.038000 -0.085200 0.016200
						CHANNELS 6 Xposition Yposition Zposition Xrotation Yrotation Zrotation
						End Site
						{
							OFFSET -0.080000 0.000000 -0.000000
						}
					}
				}
			}
		}
	}
}
MOTION
Frames: 4
Frame Time: 0.041667
-0.004363 0.283789 -0.014762 -2.291609 313.344818 -5.870502 -0.000001 -0.000001 0.000000 0.000000 0.000000 0.000000 -0.000000 -0.000002 0.000000 -0.000000 -0.000003 0.000000 0.000924 0.155148 0.009274 24.678530 -0.017350 5.108330 0.019937 0.078966 0.057518 -5.784448 5.169654 31.225630 0.177025 -0.020465 -0.095062 -5.045957 11.889633 -78.883938 -0.214996 -2.511554 349.383656 0.000000 -0.000004 -0.000003 0.021770 -0.038291 0.012954 0.000003 -0.000002 -0.000004 -0.000004 -0.000002 0.000006 0.000004 -0.000004 0.000008 -0.000001 0.000002 0.000002 -0.009090 -0.002348 -0.024223 -0.000002 -0.000002 0.000001 -0.000002 0.000004 -0.000000 0.000001 0.000000 -0.000001 0.032823 -0.025104 0.012281 0.000001 0.000001 0.000005 -0.000000 0.000003 -0.000003 -0.000002 -0.000002 0.000003 0.000001 -0.000004 0.000004 0.039230 -0.011402 0.008390 0.000001 -0.000000 0.000006 0.000001 0.000002 0.000003 0.000005 -0.000000 0.000003 0.000001 -0.000004 0.000003 0.043417 0.002450 0.002889 0.000000 -0.000002 -0.000003 -0.000002 0.000003 -0.000000 -0.000006 -0.000001 0.000002 0.000003 -0.000001 -0.000001 -0.016662 0.078957 0.057696 -18.831909 7.424062 -25.990849 -0.176972 -0.020537 -0.095144 -4.046224 -9.706972 66.304642 180.914035 178.986965 -171.773575 -0.000002 0.000001 -0.000002 -0.021773 -0.038278 0.012988 0.000002 -0.000000 -0.000005 0.000001 0.000003 0.000002 -0.000000 0.000001 -0.000001 0.000001 -0.000002 0.000003 0.009113 -0.002381 -0.024211 0.000001 0.000000 0.000001 0.000001 0.000000 -0.000001 0.000002 0.000001 0.000001 -0.032828 -0.025095 0.012286 0.000003 0.000002 -0.000003 -0.000000 0.000002 0.000001 -0.000001 0.000003 -0.000000 -0.000002 -0.000001 -0.000004 -0.039192 -0.011488 0.008390 0.000002 0.000002 -0.000000 0.000002 0.000000 0.000000 0.000002 -0.000001 0.000002 -0.000002 0.000001 -0.000004 -0.043421 0.002443 0.002845 -0.000000 0.000000 -0.000003 -0.000004 0.000007 -0.000003 -0.000001 -0.000001 -0.000000 -0.000001 0.000003 0.000000 0.000000 0.000000 -0.000000 -1.273545 0.322157 -5.353942 11.456062 -0.241921 -3.524025 0.997254 -0.013432 0.137643 0.000002 -0.000002 -0.000001 -0.000001 -0.000001 0.000000 0.000003 -0.000002 -0.000001 -0.038000 -0.085200 0.016200 -0.000002 -0.000001 0.000002 0.000000 0.000000 -0.000000 -1.237025 0.319118 -4.119946 -2.072675 0.165518 1.687961 16.999257 1.249511 -12.712131 0.000000 0.000001 -0.000000 0.000002 0.000000 -0.000001 0.000003 -0.000000 -0.000000 0.038000 -0.085200 0.016200 0.000000 0.000001 0.000001 
-0.004374 0.276163 -0.014961 -1.276401 309.226597 -6.820327 -0.000001 -0.000000 0.000000 -0.000000 -0.000000 -0.000000 -0.000000 0.000002 -0.000000 -0.000000 0.000005 -0.000000 0.000924 0.155148 0.009274 21.323465 -0.020135 5.166251 0.019937 0.078966 0.057518 -9.571060 3.734470 29.935285 0.177024 -0.020465 -0.095062 -10.744343 13.971374 -77.805478 0.711002 -1.778604 348.496305 -0.000007 0.000003 -0.000005 0.021770 -0.038291 0.012954 -0.000000 0.000001 0.000001 -0.000000 -0.000001 0.000005 -0.000001 0.000005 0.000002 -0.000001 0.000005 -0.000002 -0.009090 -0.002348 -0.024223 -0.000001 -0.000001 0.000001 0.000000 0.000002 -0.000000 -0.000001 0.000001 -0.000001 0.032823 -0.025104 0.012281 -0.000000 -0.000002 0.000005 -0.000002 0.000003 -0.000008 -0.000003 -0.000002 0.000003 -0.000002 0.000002 0.000004 0.039230 -0.011402 0.008390 0.000000 -0.000000 0.000004 -0.000002 0.000006 -0.000002 -0.000002 0.000003 0.000003 -0.000000 -0.000004 0.000001 0.043417 0.002450 0.002889 -0.000001 -0.000001 -0.000005 0.000001 -0.000003 -0.000000 -0.000005 -0.000003 0.000002 0.000004 0.000000 0.000000 -0.016662 0.078957 0.057696 -17.423223 6.205883 -25.025946 -0.176972 -0.020537 -0.095144 -7.886185 -10.336146 65.904598 179.737494 177.393933 -170.275223 0.000002 -0.000002 0.000002 -0.021773 -0.038278 0.012988 0.000002 -0.000003 -0.000002 -0.000003 0.000003 -0.000003 -0.000003 -0.000000 -0.000001 -0.000001 -0.000002 -0.000001 0.009114 -0.002381 -0.024212 -0.000001 -0.000003 -0.000001 -0.000001 -0.000003 0.000000 0.000002 0.000002 -0.000004 -0.032828 -0.025095 0.012286 0.000001 -0.000002 -0.000001 0.000001 0.000003 -0.000003 0.000003 0.000001 0.000004 -0.000003 0.000003 -0.000002 -0.039192 -0.011488 0.008390 0.000001 -0.000000 -0.000000 -0.000003 0.000002 -0.000005 0.000000 -0.000002 0.000002 -0.000001 -0.000003 0.000001 -0.043421 0.002443 0.002844 0.000002 -0.000001 0.000002 -0.000004 0.000007 -0.000003 -0.000001 -0.000002 -0.000002 -0.000001 0.000002 -0.000004 0.000000 0.000000 -0.000000 -1.404158 0.299402 -4.918283 8.892480 -0.215716 -3.047923 2.057599 0.008882 -0.087456 -0.000002 -0.000001 -0.000001 -0.000003 -0.000002 0.000000 0.000000 -0.000002 -0.000001 -0.038000 -0.085200 0.016200 0.000002 -0.000002 0.000002 0.000000 -0.000000 -0.000000 -1.365177 0.296447 -3.684303 -0.378075 0.141100 1.473314 13.380276 1.173082 -11.922559 -0.000002 0.000000 -0.000003 0.000003 0.000001 0.000001 0.000002 -0.000000 0.000001 0.038000 -0.085200 0.016200 -0.000003 -0.000002 0.000001 
-0.004717 0.289309 -0.013758 -2.386852 303.296654 -7.667688 0.000000 -0.000000 -0.000000 -0.000001 0.000001 0.000000 -0.000000 0.000001 -0.000000 -0.000000 -0.000000 0.000001 0.000924 0.155148 0.009274 23.567566 -0.016979 4.050708 0.019937 0.078966 0.057518 -9.784616 4.286239 29.121970 0.177025 -0.020465 -0.095062 -17.558519 15.790277 -77.518139 -0.919460 -3.822677 344.061163 -0.000001 0.000002 0.000001 0.021770 -0.038291 0.012954 0.000001 -0.000003 -0.000002 -0.000004 -0.000000 0.000003 0.000002 0.000003 0.000005 -0.000004 0.000000 -0.000001 -0.009090 -0.002348 -0.024223 -0.000002 -0.000002 -0.000001 0.000002 -0.000001 -0.000001 0.000002 0.000000 -0.000001 0.032823 -0.025104 0.012281 0.000000 0.000001 0.000009 0.000002 -0.000002 -0.000005 -0.000003 -0.000002 0.000003 -0.000005 -0.000002 0.000006 0.039230 -0.011402 0.008390 -0.000001 -0.000003 0.000004 0.000002 -0.000001 0.000001 0.000003 0.000009 0.000003 -0.000003 -0.000003 0.000003 0.043417 0.002450 0.002889 -0.000001 -0.000002 -0.000002 -0.000001 -0.000003 -0.000000 -0.000005 0.000002 -0.000001 -0.000003 0.000000 -0.000003 -0.016662 0.078956 0.057696 -13.834786 6.219476 -25.289187 -0.176972 -0.020537 -0.095144 -12.208781 -10.547859 65.701195 177.615668 174.683031 -162.407705 0.000001 -0.000001 0.000002 -0.021773 -0.038278 0.012988 -0.000000 -0.000001 -0.000002 0.000001 0.000001 0.000004 -0.000001 0.000001 -0.000001 -0.000001 0.000003 0.000003 0.009113 -0.002381 -0.024211 0.000002 0.000000 0.000003 -0.000000 -0.000001 0.000000 0.000002 0.000001 -0.000003 -0.032828 -0.025095 0.012286 -0.000001 -0.000001 -0.000001 -0.000001 0.000000 -0.000001 -0.000000 0.000003 -0.000000 -0.000002 0.000000 -0.000000 -0.039192 -0.011488 0.008390 -0.000000 -0.000000 -0.000002 -0.000001 0.000004 -0.000005 -0.000001 -0.000002 -0.000000 -0.000003 0.000000 -0.000003 -0.043421 0.002443 0.002845 -0.000002 0.000001 0.000000 -0.000001 0.000004 0.000003 -0.000001 -0.000004 -0.000002 -0.000000 -0.000005 -0.000000 0.000000 0.000000 0.000000 -1.259790 0.316809 -5.297775 7.507535 -0.211154 -2.900801 2.071469 0.048799 -0.490172 -0.000002 0.000002 -0.000001 -0.000000 -0.000002 0.000000 0.000002 0.000000 -0.000001 -0.038000 -0.085200 0.016200 -0.000002 -0.000001 0.000001 0.000000 0.000000 0.000000 -1.223762 0.313840 -4.063805 1.964584 -0.033650 -0.630848 11.855993 1.267828 -12.901821 0.000000 -0.000000 0.000001 0.000002 -0.000002 0.000003 0.000005 -0.000000 0.000001 0.038000 -0.085200 0.016200 -0.000000 -0.000001 0.000000 
-0.005584 0.288443 -0.012745 -4.910602 294.427107 -9.626698 0.000000 -0.000001 -0.000000 -0.000000 0.000002 -0.000000 0.000000 -0.000002 0.000000 0.000001 -0.000003 -0.000000 0.000924 0.155148 0.009274 22.751830 -0.017575 3.733036 0.019937 0.078966 0.057518 -11.057316 4.561729 30.646041 0.177024 -0.020466 -0.095062 -19.199551 16.073225 -75.647118 -1.206491 -3.693467 344.705550 -0.000003 -0.000001 -0.000000 0.021770 -0.038291 0.012954 0.000000 -0.000000 -0.000004 0.000002 -0.000001 0.000005 0.000001 -0.000002 0.000006 -0.000001 0.000003 -0.000000 -0.009090 -0.002348 -0.024223 0.000004 0.000000 0.000004 0.000003 0.000000 0.000001 -0.000000 -0.000006 0.000001 0.032823 -0.025104 0.012281 -0.000002 -0.000000 0.000002 0.000001 0.000005 -0.000007 -0.000003 -0.000005 0.000003 -0.000001 0.000001 0.000003 0.039230 -0.011402 0.008390 0.000002 0.000001 0.000003 0.000004 0.000000 -0.000002 0.000000 0.000003 0.000001 -0.000002 -0.000001 0.000006 0.043417 0.002450 0.002889 -0.000001 -0.000000 -0.000003 -0.000000 -0.000006 0.000003 0.000000 -0.000003 0.000001 -0.000002 -0.000007 0.000000 -0.016662 0.078957 0.057696 -14.385714 6.332590 -25.778406 -0.176972 -0.020537 -0.095144 -17.764489 -10.724385 62.806977 176.186260 173.929347 -161.434813 -0.000002 0.000004 0.000001 -0.021773 -0.038278 0.012988 0.000000 -0.000002 -0.000002 -0.000001 0.000002 -0.000003 -0.000001 -0.000000 -0.000003 -0.000003 0.000003 -0.000003 0.009114 -0.002381 -0.024211 -0.000000 -0.000001 -0.000003 0.000002 -0.000002 -0.000001 0.000002 -0.000001 -0.000003 -0.032828 -0.025095 0.012286 0.000001 0.000000 0.000001 -0.000000 0.000003 0.000001 0.000003 -0.000003 0.000001 -0.000001 -0.000001 -0.000004 -0.039192 -0.011488 0.008390 0.000004 -0.000000 -0.000000 0.000002 0.000003 -0.000003 -0.000000 0.000002 -0.000000 -0.000002 0.000003 -0.000001 -0.043421 0.002443 0.002845 0.000002 -0.000002 0.000004 -0.000002 0.000001 0.000001 -0.000001 0.000001 0.000002 0.000000 0.000002 0.000004 0.000000 0.000000 -0.000000 -1.290027 0.388261 -6.211814 5.342953 -0.295045 -3.874875 2.243640 0.076345 -0.768099 0.000002 -0.000002 -0.000001 -0.000002 -0.000002 -0.000001 0.000002 -0.000002 0.000001 -0.038000 -0.085200 0.016200 0.000002 -0.000002 -0.000001 0.000000 0.000000 -0.000000 -1.251183 0.384446 -4.977905 1.784122 0.094161 1.027510 9.963318 1.194169 -12.140172 -0.000005 0.000000 -0.000001 0.000002 -0.000001 -0.000001 0.000007 0.000002 -0.000002 0.038000 -0.085200 0.016200 0.000002 -0.000002 -0.000002 
